<?xml version="1.0" encoding="utf-8"?>
<!-- Generator: Adobe Illustrator 27.9.0, SVG Export Plug-In . SVG Version: 6.00 Build 0)  -->
<svg version="1.1" id="Capa_1" xmlns="http://www.w3.org/2000/svg" xmlns:xlink="http://www.w3.org/1999/xlink" x="0px" y="0px"
	 viewBox="0 0 139 39" style="enable-background:new 0 0 139 39;" xml:space="preserve">
<style type="text/css">
	.st0{fill:#00005A;}
	.st1{fill:#AF0F7D;}
	.st2{fill:url(#SVGID_1_);}
	.st3{fill:url(#SVGID_00000004540501563326969440000009304386931878174910_);}
	.st4{fill:url(#SVGID_00000131339314020457213530000005963340191192969143_);}
	.st5{fill:url(#SVGID_00000083079290878178364000000000961319055829107887_);}
	.st6{fill:url(#SVGID_00000053544574419261202490000006937665973003263119_);}
	.st7{fill:url(#SVGID_00000035514977211139960420000001908058897285727883_);}
	.st8{fill:url(#SVGID_00000048479970602919783560000014652426318436537483_);}
</style>
<g>
	<g>
		<path class="st0" d="M42,9.8c0-0.1,0-0.2,0-0.2c0-0.2,0.1-0.3,0.2-0.5c0.1-0.1,0.3-0.3,0.4-0.4c0.2-0.1,0.4-0.2,0.6-0.2
			c0.2-0.1,0.4-0.1,0.6-0.1c0.2,0,0.4,0,0.6,0.1c0.2,0.1,0.3,0.2,0.3,0.4L48,20.5L51.2,9c0.1-0.2,0.2-0.3,0.3-0.4
			c0.2-0.1,0.4-0.1,0.6-0.1c0.2,0,0.4,0,0.6,0.1c0.2,0.1,0.4,0.1,0.6,0.2c0.2,0.1,0.3,0.2,0.4,0.4c0.1,0.1,0.2,0.3,0.2,0.5
			c0,0,0,0.1,0,0.2l-4.1,13.4c-0.1,0.3-0.3,0.6-0.7,0.7c-0.3,0.1-0.7,0.2-1.1,0.2c-0.4,0-0.8-0.1-1.1-0.2s-0.6-0.4-0.7-0.7L42,9.8z"
			/>
		<path class="st0" d="M59.4,21.7c0.6,0,1.2-0.1,1.7-0.4s0.7-0.8,0.7-1.4c0-0.5-0.2-1-0.5-1.3S60.5,18,60,17.7s-1.1-0.5-1.6-0.8
			c-0.6-0.2-1.1-0.5-1.6-0.9s-0.9-0.8-1.3-1.4c-0.3-0.5-0.5-1.2-0.5-2.1c0-0.8,0.2-1.5,0.5-2s0.7-1,1.2-1.3s1-0.6,1.7-0.7
			c0.6-0.1,1.2-0.2,1.8-0.2c0.3,0,0.7,0,1.2,0.1c0.5,0,0.9,0.1,1.3,0.3c0.4,0.1,0.8,0.3,1.1,0.5s0.5,0.5,0.5,0.9
			c0,0.1,0,0.3-0.1,0.4c0,0.2-0.1,0.3-0.2,0.5s-0.2,0.3-0.4,0.4c-0.1,0.1-0.3,0.2-0.5,0.2s-0.3,0-0.5-0.1s-0.3-0.2-0.6-0.3
			c-0.2-0.1-0.5-0.2-0.8-0.3s-0.7-0.1-1.1-0.1c-0.8,0-1.4,0.1-1.8,0.4c-0.4,0.3-0.6,0.7-0.6,1.2c0,0.4,0.2,0.8,0.5,1.1
			s0.8,0.5,1.3,0.8c0.5,0.2,1.1,0.5,1.6,0.7c0.6,0.2,1.1,0.6,1.6,1s0.9,0.9,1.3,1.5c0.3,0.6,0.5,1.3,0.5,2.3c0,0.8-0.1,1.4-0.4,2
			c-0.3,0.6-0.6,1.1-1.1,1.4c-0.4,0.4-1,0.7-1.6,0.9c-0.6,0.2-1.3,0.3-2,0.3s-1.3-0.1-2-0.2c-0.6-0.2-1.1-0.4-1.6-0.6
			c-0.4-0.3-0.8-0.5-1-0.9c-0.2-0.3-0.4-0.6-0.4-0.9c0-0.1,0-0.3,0.1-0.5s0.2-0.3,0.3-0.5c0.1-0.1,0.2-0.3,0.4-0.4
			c0.1-0.1,0.3-0.1,0.5-0.1s0.4,0.1,0.6,0.3c0.2,0.2,0.4,0.4,0.7,0.6s0.6,0.4,0.9,0.6C58.4,21.6,58.9,21.7,59.4,21.7z"/>
		<path class="st0" d="M66.5,9.3c0-0.3,0.1-0.5,0.4-0.7c0.3-0.1,0.6-0.2,1-0.2c0.3,0,0.7,0.1,1,0.2c0.3,0.1,0.4,0.4,0.4,0.7v13.9
			c0,0.3-0.1,0.5-0.4,0.7c-0.3,0.1-0.6,0.2-1,0.2s-0.7-0.1-1-0.2s-0.4-0.4-0.4-0.7V9.3z"/>
		<path class="st0" d="M76.6,24.2c-0.7,0-1.4-0.1-2-0.3c-0.6-0.2-1.1-0.5-1.6-0.8c-0.4-0.4-0.8-0.9-1.1-1.5
			c-0.3-0.6-0.4-1.4-0.4-2.3v-6c0-0.9,0.1-1.7,0.4-2.3s0.6-1.1,1.1-1.5c0.4-0.4,1-0.7,1.6-0.8c0.6-0.2,1.3-0.3,2-0.3s1.4,0.1,2,0.3
			s1.1,0.5,1.6,0.8c0.5,0.4,0.8,0.9,1.1,1.5c0.3,0.6,0.4,1.4,0.4,2.3v6c0,0.9-0.1,1.7-0.4,2.3c-0.3,0.6-0.6,1.1-1.1,1.5
			s-1,0.7-1.6,0.8C78,24.1,77.3,24.2,76.6,24.2z M78.9,13.3c0-0.9-0.2-1.5-0.6-1.9s-0.9-0.6-1.6-0.6s-1.3,0.2-1.6,0.6
			c-0.4,0.4-0.6,1-0.6,1.9v6c0,0.9,0.2,1.5,0.6,1.9s0.9,0.6,1.6,0.6s1.2-0.2,1.6-0.6s0.6-1,0.6-1.9V13.3z"/>
		<path class="st0" d="M93,24c-0.3,0-0.6-0.1-0.9-0.2s-0.5-0.4-0.7-0.7l-4.6-8.6v8.6c0,0.3-0.1,0.5-0.4,0.7c-0.3,0.1-0.6,0.2-1,0.2
			s-0.7-0.1-1-0.2S84,23.4,84,23.1V9.3c0-0.3,0.1-0.5,0.4-0.7c0.3-0.1,0.6-0.2,1-0.2c0.3,0,0.5,0,0.7,0.1c0.2,0,0.4,0.1,0.5,0.2
			C86.7,8.8,86.9,9,87,9.1c0.1,0.2,0.3,0.4,0.5,0.8l4.1,8V9.3c0-0.3,0.1-0.5,0.4-0.7c0.3-0.1,0.6-0.2,1-0.2c0.3,0,0.7,0.1,1,0.2
			c0.3,0.1,0.4,0.4,0.4,0.7v13.9c0,0.3-0.1,0.5-0.4,0.7C93.7,24,93.3,24,93,24z"/>
		<path class="st0" d="M108.8,17H104v6.1c0,0.3-0.1,0.5-0.4,0.7c-0.3,0.1-0.6,0.2-1,0.2s-0.7-0.1-1-0.2s-0.4-0.4-0.4-0.7V9.3
			c0-0.3,0.1-0.5,0.4-0.7c0.3-0.1,0.6-0.2,1-0.2c0.3,0,0.7,0.1,1,0.2c0.3,0.1,0.4,0.4,0.4,0.7v5.6h4.8V9.3c0-0.3,0.1-0.5,0.4-0.7
			c0.3-0.1,0.6-0.2,1-0.2c0.3,0,0.7,0.1,1,0.2c0.3,0.1,0.4,0.4,0.4,0.7v13.9c0,0.3-0.1,0.5-0.4,0.7c-0.3,0.1-0.6,0.2-1,0.2
			s-0.7-0.1-1-0.2s-0.4-0.4-0.4-0.7V17z"/>
		<path class="st0" d="M121.6,9.3c0-0.3,0.1-0.5,0.4-0.7c0.3-0.1,0.6-0.2,1-0.2c0.3,0,0.7,0.1,1,0.2c0.3,0.1,0.4,0.4,0.4,0.7v10
			c0,0.9-0.1,1.7-0.4,2.3c-0.3,0.6-0.6,1.1-1.1,1.5s-1,0.7-1.6,0.8c-0.6,0.2-1.3,0.3-2,0.3s-1.4-0.1-2-0.3c-0.6-0.2-1.2-0.5-1.6-0.8
			c-0.5-0.4-0.8-0.9-1.1-1.5c-0.3-0.6-0.4-1.4-0.4-2.3v-10c0-0.3,0.1-0.5,0.4-0.7c0.3-0.1,0.6-0.2,1-0.2c0.3,0,0.7,0.1,1,0.2
			c0.3,0.1,0.4,0.4,0.4,0.7v10c0,0.8,0.2,1.5,0.6,1.9s1,0.6,1.7,0.6s1.3-0.2,1.7-0.6c0.4-0.4,0.6-1,0.6-1.9V9.3z"/>
		<path class="st0" d="M126.8,9.3c0-0.3,0.1-0.5,0.4-0.7c0.2-0.1,0.5-0.2,0.8-0.2h4.1c0.6,0,1.1,0.1,1.6,0.2c0.5,0.1,1,0.3,1.4,0.6
			s0.7,0.7,1,1.2c0.2,0.5,0.4,1.1,0.4,1.9c0,0.9-0.2,1.6-0.5,2.2c-0.3,0.6-0.8,1-1.3,1.2c0.3,0.1,0.6,0.3,0.9,0.5
			c0.3,0.2,0.5,0.4,0.7,0.7c0.2,0.3,0.3,0.6,0.4,1c0.1,0.4,0.2,0.8,0.2,1.4v0.4c0,0.8-0.1,1.5-0.3,2.1s-0.5,1-0.9,1.4
			s-0.8,0.6-1.4,0.8c-0.5,0.2-1.1,0.2-1.7,0.2H128c-0.4,0-0.7-0.1-0.9-0.3c-0.2-0.2-0.3-0.4-0.3-0.6C126.8,23.3,126.8,9.3,126.8,9.3
			z M129.6,14.5h2.4c0.6,0,1-0.2,1.3-0.5s0.4-0.8,0.4-1.3c0-0.6-0.2-1-0.5-1.3s-0.7-0.5-1.3-0.5h-2.4v3.6H129.6z M132,21.6
			c0.7,0,1.2-0.2,1.5-0.6c0.4-0.4,0.5-1,0.5-1.8v-0.3c0-0.8-0.2-1.4-0.5-1.8c-0.4-0.3-0.9-0.5-1.5-0.5h-2.4v4.9L132,21.6L132,21.6z"
			/>
	</g>
	<g>
		<path class="st1" d="M46.7,28.7c0.2,0,0.4,0,0.6,0.1c0.2,0.1,0.4,0.1,0.5,0.3c0.1,0.1,0.3,0.3,0.3,0.5c0.1,0.2,0.1,0.4,0.1,0.7
			v1.9c0,0.3,0,0.5-0.1,0.7s-0.2,0.4-0.3,0.5s-0.3,0.2-0.5,0.3s-0.4,0.1-0.6,0.1h-1.2c-0.1,0-0.2,0-0.3-0.1s-0.1-0.1-0.1-0.2V29
			c0-0.1,0-0.1,0.1-0.2s0.2-0.1,0.3-0.1C45.5,28.7,46.7,28.7,46.7,28.7z M46,29.5v3.4h0.7c0.2,0,0.4-0.1,0.5-0.2
			c0.1-0.1,0.2-0.3,0.2-0.6v-1.9c0-0.3-0.1-0.5-0.2-0.6c-0.1-0.1-0.3-0.2-0.5-0.2L46,29.5L46,29.5z"/>
		<path class="st1" d="M53.4,33.7c-0.1,0-0.1,0-0.2,0c-0.1,0-0.1,0-0.2-0.1c-0.1,0-0.1-0.1-0.1-0.1l-0.1-0.1c0,0,0,0,0-0.1l1.3-4.3
			c0-0.1,0.1-0.2,0.2-0.2c0.1,0,0.2-0.1,0.4-0.1c0.1,0,0.3,0,0.4,0.1c0.1,0,0.2,0.1,0.2,0.2l1.3,4.3v0.1c0,0.1,0,0.1-0.1,0.1
			l-0.1,0.1c-0.1,0-0.1,0.1-0.2,0.1c-0.1,0-0.1,0-0.2,0c-0.1,0-0.1,0-0.2,0s-0.1-0.1-0.1-0.1l-0.3-0.9h-1.6l-0.3,0.9
			C53.5,33.7,53.4,33.7,53.4,33.7C53.5,33.6,53.5,33.7,53.4,33.7z M55.3,31.9l-0.6-2.1l-0.6,2.1H55.3z"/>
		<path class="st1" d="M61.2,29c0-0.1,0-0.1,0.1-0.2s0.1-0.1,0.2-0.1h1.4c0.2,0,0.4,0,0.6,0.1c0.2,0.1,0.3,0.1,0.5,0.3
			c0.1,0.1,0.3,0.3,0.3,0.5c0.1,0.2,0.1,0.4,0.1,0.7l0,0c0,0.3,0,0.5-0.1,0.7s-0.2,0.4-0.3,0.5c-0.1,0.1-0.3,0.2-0.5,0.3
			c-0.2,0.1-0.4,0.1-0.6,0.1H62v1.6c0,0.1,0,0.2-0.1,0.2s-0.2,0.1-0.3,0.1s-0.2,0-0.3-0.1c-0.1,0-0.1-0.1-0.1-0.2
			C61.2,33.5,61.2,29,61.2,29z M62,29.5v1.6h0.8c0.2,0,0.4-0.1,0.5-0.2s0.2-0.3,0.2-0.6v-0.1c0-0.3-0.1-0.5-0.2-0.6
			c-0.1-0.1-0.3-0.2-0.5-0.2H62V29.5z"/>
		<path class="st1" d="M75.8,29c0-0.1,0-0.1,0.1-0.2s0.1-0.1,0.2-0.1h1.4c0.2,0,0.4,0,0.6,0.1s0.3,0.1,0.5,0.3
			c0.1,0.1,0.3,0.3,0.3,0.5C79,29.8,79,30,79,30.3l0,0c0,0.3,0,0.5-0.1,0.7s-0.2,0.4-0.3,0.5c-0.1,0.1-0.3,0.2-0.5,0.3
			c-0.2,0.1-0.4,0.1-0.6,0.1h-0.8v1.6c0,0.1,0,0.2-0.1,0.2s-0.2,0.1-0.3,0.1c-0.1,0-0.2,0-0.3-0.1c-0.1,0-0.1-0.1-0.1-0.2L75.8,29
			L75.8,29z M76.7,29.5v1.6h0.8c0.2,0,0.4-0.1,0.5-0.2s0.2-0.3,0.2-0.6v-0.1c0-0.3-0.1-0.5-0.2-0.6s-0.3-0.2-0.5-0.2h-0.8V29.5z"/>
		<path class="st1" d="M85,29c0-0.1,0-0.1,0.1-0.2s0.1-0.1,0.2-0.1h1.3c0.2,0,0.4,0,0.6,0.1c0.2,0,0.4,0.1,0.5,0.2s0.3,0.3,0.3,0.4
			c0.1,0.2,0.1,0.4,0.1,0.7c0,0.4-0.1,0.7-0.3,0.9c-0.2,0.2-0.4,0.4-0.6,0.4l0.9,1.7c0,0,0,0,0,0.1c0,0,0,0,0,0.1s0,0.1-0.1,0.2
			c0,0.1-0.1,0.1-0.1,0.1c-0.1,0-0.1,0.1-0.2,0.1s-0.1,0-0.2,0s-0.1,0-0.2-0.1c-0.1,0-0.1-0.1-0.1-0.2l-1-1.9h-0.6v1.8
			c0,0.1,0,0.2-0.1,0.2s-0.2,0.1-0.3,0.1c-0.1,0-0.2,0-0.3-0.1c-0.1,0-0.1-0.1-0.1-0.2V29H85z M85.9,29.5v1.4h0.7
			c0.2,0,0.4-0.1,0.5-0.2s0.2-0.3,0.2-0.6c0-0.3-0.1-0.5-0.2-0.6s-0.3-0.2-0.5-0.2h-0.7V29.5z"/>
		<path class="st1" d="M94.5,33.7c-0.2,0-0.4,0-0.6-0.1s-0.4-0.1-0.5-0.3c-0.1-0.1-0.3-0.3-0.3-0.5C93,32.6,93,32.4,93,32.1v-1.9
			c0-0.3,0-0.5,0.1-0.7s0.2-0.4,0.3-0.5c0.1-0.1,0.3-0.2,0.5-0.3c0.2-0.1,0.4-0.1,0.6-0.1s0.4,0,0.6,0.1s0.4,0.1,0.5,0.3
			c0.1,0.1,0.3,0.3,0.3,0.5c0.1,0.2,0.1,0.4,0.1,0.7v1.9c0,0.3,0,0.5-0.1,0.7s-0.2,0.4-0.3,0.5c-0.1,0.1-0.3,0.2-0.5,0.3
			C95,33.7,94.7,33.7,94.5,33.7z M95.2,30.2c0-0.3-0.1-0.5-0.2-0.6s-0.3-0.2-0.5-0.2s-0.4,0.1-0.5,0.2s-0.2,0.3-0.2,0.6v1.9
			c0,0.3,0.1,0.5,0.2,0.6s0.3,0.2,0.5,0.2s0.4-0.1,0.5-0.2c0.1-0.1,0.2-0.3,0.2-0.6V30.2z"/>
		<path class="st1" d="M103.8,28.7c0.1,0,0.2,0,0.2,0.1s0.1,0.2,0.1,0.3c0,0.1,0,0.2-0.1,0.3c0,0.1-0.1,0.1-0.2,0.1h-1v3.9
			c0,0.1,0,0.2-0.1,0.2s-0.2,0.1-0.3,0.1c-0.1,0-0.2,0-0.3-0.1c-0.1,0-0.1-0.1-0.1-0.2v-3.9h-1c-0.1,0-0.2,0-0.2-0.1
			s-0.1-0.2-0.1-0.3c0-0.1,0-0.2,0.1-0.3c0-0.1,0.1-0.1,0.2-0.1C101,28.7,103.8,28.7,103.8,28.7z"/>
		<path class="st1" d="M110.2,33.7c-0.2,0-0.4,0-0.6-0.1s-0.4-0.1-0.5-0.3c-0.1-0.1-0.3-0.3-0.3-0.5c-0.1-0.2-0.1-0.4-0.1-0.7v-1.9
			c0-0.3,0-0.5,0.1-0.7s0.2-0.4,0.3-0.5c0.1-0.1,0.3-0.2,0.5-0.3c0.2-0.1,0.4-0.1,0.6-0.1s0.4,0,0.6,0.1s0.4,0.1,0.5,0.3
			c0.1,0.1,0.3,0.3,0.3,0.5c0.1,0.2,0.1,0.4,0.1,0.7v1.9c0,0.3,0,0.5-0.1,0.7s-0.2,0.4-0.3,0.5c-0.1,0.1-0.3,0.2-0.5,0.3
			S110.4,33.7,110.2,33.7z M110.9,30.2c0-0.3-0.1-0.5-0.2-0.6s-0.3-0.2-0.5-0.2s-0.4,0.1-0.5,0.2s-0.2,0.3-0.2,0.6v1.9
			c0,0.3,0.1,0.5,0.2,0.6s0.3,0.2,0.5,0.2s0.4-0.1,0.5-0.2c0.1-0.1,0.2-0.3,0.2-0.6V30.2z"/>
		<path class="st1" d="M118.8,30.1c0-0.1,0-0.1,0-0.2s0-0.1-0.1-0.2c0-0.1-0.1-0.1-0.2-0.2c-0.1,0-0.2-0.1-0.4-0.1
			c-0.2,0-0.4,0.1-0.5,0.2s-0.2,0.3-0.2,0.6v1.9c0,0.3,0.1,0.5,0.2,0.6s0.3,0.2,0.5,0.2s0.3,0,0.4-0.1c0.1,0,0.2-0.1,0.2-0.2
			c0-0.1,0.1-0.2,0.1-0.2c0-0.1,0-0.2,0-0.2c0-0.1,0.1-0.2,0.1-0.2c0.1,0,0.2-0.1,0.3-0.1c0.2,0,0.3,0,0.3,0.1
			c0.1,0.1,0.1,0.2,0.1,0.3c0,0.2,0,0.4-0.1,0.6c-0.1,0.2-0.2,0.3-0.3,0.4c-0.1,0.1-0.3,0.2-0.5,0.3s-0.4,0.1-0.7,0.1
			c-0.2,0-0.4,0-0.6-0.1s-0.4-0.1-0.5-0.3c-0.1-0.1-0.3-0.3-0.3-0.5c-0.1-0.2-0.1-0.4-0.1-0.7v-1.9c0-0.3,0-0.5,0.1-0.7
			s0.2-0.4,0.3-0.5c0.1-0.1,0.3-0.2,0.5-0.3c0.2-0.1,0.4-0.1,0.6-0.1s0.5,0,0.7,0.1s0.4,0.1,0.5,0.3c0.1,0.1,0.3,0.2,0.3,0.4
			c0.1,0.2,0.1,0.3,0.1,0.5s0,0.3-0.1,0.3c-0.1,0.1-0.2,0.1-0.3,0.1C119.1,30.3,119,30.3,118.8,30.1
			C118.9,30.3,118.8,30.2,118.8,30.1z"/>
		<path class="st1" d="M127.3,33.7c-0.2,0-0.4,0-0.6-0.1s-0.4-0.1-0.5-0.3c-0.1-0.1-0.3-0.3-0.3-0.5c-0.1-0.2-0.1-0.4-0.1-0.7v-1.9
			c0-0.3,0-0.5,0.1-0.7s0.2-0.4,0.3-0.5c0.1-0.1,0.3-0.2,0.5-0.3c0.2-0.1,0.4-0.1,0.6-0.1s0.4,0,0.6,0.1c0.2,0.1,0.4,0.1,0.5,0.3
			c0.1,0.1,0.3,0.3,0.3,0.5c0.1,0.2,0.1,0.4,0.1,0.7v1.9c0,0.3,0,0.5-0.1,0.7s-0.2,0.4-0.3,0.5s-0.3,0.2-0.5,0.3
			S127.5,33.7,127.3,33.7z M128,30.2c0-0.3-0.1-0.5-0.2-0.6s-0.3-0.2-0.5-0.2s-0.4,0.1-0.5,0.2s-0.2,0.3-0.2,0.6v1.9
			c0,0.3,0.1,0.5,0.2,0.6s0.3,0.2,0.5,0.2s0.4-0.1,0.5-0.2c0.1-0.1,0.2-0.3,0.2-0.6V30.2z"/>
		<path class="st1" d="M134.1,33.7c-0.1,0-0.2,0-0.3-0.1c-0.1,0-0.1-0.1-0.1-0.2V29c0-0.1,0-0.2,0.1-0.2s0.2-0.1,0.3-0.1
			s0.2,0,0.3,0.1c0.1,0,0.1,0.1,0.1,0.2v3.9h1.7c0.1,0,0.2,0,0.2,0.1s0.1,0.2,0.1,0.3s0,0.2-0.1,0.3c0,0.1-0.1,0.1-0.2,0.1
			C136.2,33.7,134.1,33.7,134.1,33.7z"/>
	</g>
	<g>
		
			<linearGradient id="SVGID_1_" gradientUnits="userSpaceOnUse" x1="32.9589" y1="48.1429" x2="14.9928" y2="-6.3715" gradientTransform="matrix(1 0 0 -1 0 40)">
			<stop  offset="0" style="stop-color:#AF0F7D"/>
			<stop  offset="0.51" style="stop-color:#58086C"/>
			<stop  offset="1" style="stop-color:#00005A"/>
		</linearGradient>
		<path class="st2" d="M36.2,10.4c0,0.4-0.7,0.7-1.6,0.7H20.8c-0.9,0-1.9,0-2.4,0.1c-0.4,0-1.1-0.4-0.7-1.1l4-6.9
			c0.4-0.8,1.4-1,2.2-0.6l10.9,6.3C35.5,9.3,36.2,10,36.2,10.4z"/>
		
			<linearGradient id="SVGID_00000059288177447814884710000001455584840591239593_" gradientUnits="userSpaceOnUse" x1="18.6845" y1="52.8472" x2="0.7183" y2="-1.6672" gradientTransform="matrix(1 0 0 -1 0 40)">
			<stop  offset="0" style="stop-color:#AF0F7D"/>
			<stop  offset="0.51" style="stop-color:#58086C"/>
			<stop  offset="1" style="stop-color:#00005A"/>
		</linearGradient>
		<path style="fill:url(#SVGID_00000059288177447814884710000001455584840591239593_);" d="M19.8,0.2c0.3,0.2,0.2,1-0.2,1.7
			l-6.9,11.9c-0.4,0.8-0.8,1.4-0.8,1.4s-0.2,0.3-0.3,0.7c-0.2,0.4-0.9,0.8-1.3,0L6.3,9C5.8,8.4,6.1,7.4,6.8,7l10.9-6.3
			C18.5,0.2,19.4,0,19.8,0.2z"/>
		
			<linearGradient id="SVGID_00000002359368241235457150000009249002846117127349_" gradientUnits="userSpaceOnUse" x1="17.4568" y1="53.2518" x2="-0.5093" y2="-1.2626" gradientTransform="matrix(1 0 0 -1 0 40)">
			<stop  offset="0" style="stop-color:#AF0F7D"/>
			<stop  offset="0.51" style="stop-color:#58086C"/>
			<stop  offset="1" style="stop-color:#00005A"/>
		</linearGradient>
		<path style="fill:url(#SVGID_00000002359368241235457150000009249002846117127349_);" d="M2.8,9.3c0.3-0.2,1,0.3,1.4,1l6.9,11.9
			c0.4,0.8,0.8,1.4,0.8,1.4s0.2,0.3,0.4,0.6c0.2,0.3,0.3,1.2-0.6,1.2H3.8c-0.9,0-1.6-0.7-1.6-1.6V11.3C2.2,10.4,2.4,9.5,2.8,9.3z"/>
		
			<linearGradient id="SVGID_00000083051479130140747120000016132108187841412237_" gradientUnits="userSpaceOnUse" x1="24.4965" y1="50.9318" x2="6.5303" y2="-3.5826" gradientTransform="matrix(1 0 0 -1 0 40)">
			<stop  offset="0" style="stop-color:#AF0F7D"/>
			<stop  offset="0.51" style="stop-color:#58086C"/>
			<stop  offset="1" style="stop-color:#00005A"/>
		</linearGradient>
		<path style="fill:url(#SVGID_00000083051479130140747120000016132108187841412237_);" d="M2.2,28.6c0-0.4,0.7-0.7,1.6-0.7h13.8
			c0.9,0,1.6,0,1.6,0l0,0c0.8,0,0.8,0,0.8,0c0.8-0.2,1.1,0.3,0.7,1.1l-4,6.9c-0.4,0.8-1.4,1-2.2,0.6l-11-6.4
			C2.8,29.7,2.2,29,2.2,28.6z"/>
		
			<linearGradient id="SVGID_00000148619750190638263580000015352826972691769777_" gradientUnits="userSpaceOnUse" x1="38.6635" y1="46.2627" x2="20.6973" y2="-8.2516" gradientTransform="matrix(1 0 0 -1 0 40)">
			<stop  offset="0" style="stop-color:#AF0F7D"/>
			<stop  offset="0.51" style="stop-color:#58086C"/>
			<stop  offset="1" style="stop-color:#00005A"/>
		</linearGradient>
		<path style="fill:url(#SVGID_00000148619750190638263580000015352826972691769777_);" d="M18.5,38.8c-0.3-0.2-0.2-1,0.2-1.7
			l6.9-11.9c0.4-0.8,0.8-1.4,0.8-1.4s0.2-0.3,0.3-0.7c0.2-0.4,0.9-0.8,1.3,0l4,6.9c0.4,0.8,0.2,1.7-0.6,2.2l-10.9,6.3
			C19.8,38.8,18.9,39,18.5,38.8z"/>
		
			<linearGradient id="SVGID_00000057112824906458583090000002929792273198196877_" gradientUnits="userSpaceOnUse" x1="39.9101" y1="45.852" x2="21.9439" y2="-8.6625" gradientTransform="matrix(1 0 0 -1 0 40)">
			<stop  offset="0" style="stop-color:#AF0F7D"/>
			<stop  offset="0.51" style="stop-color:#58086C"/>
			<stop  offset="1" style="stop-color:#00005A"/>
		</linearGradient>
		<path style="fill:url(#SVGID_00000057112824906458583090000002929792273198196877_);" d="M35.5,29.7c-0.3,0.2-1-0.3-1.4-1
			l-6.9-11.9c-0.4-0.8-0.8-1.4-0.8-1.4s-0.2-0.3-0.4-0.6c-0.2-0.3-0.3-1.2,0.6-1.2h7.9c0.9,0,1.6,0.7,1.6,1.6v12.6
			C36.2,28.6,35.9,29.5,35.5,29.7z"/>
		<g>
			
				<linearGradient id="SVGID_00000116924103894208418770000014690015503584902059_" gradientUnits="userSpaceOnUse" x1="28.7829" y1="49.5191" x2="10.8167" y2="-4.9952" gradientTransform="matrix(1 0 0 -1 0 40)">
				<stop  offset="0" style="stop-color:#AF0F7D"/>
				<stop  offset="0.51" style="stop-color:#58086C"/>
				<stop  offset="1" style="stop-color:#00005A"/>
			</linearGradient>
			<path style="fill:url(#SVGID_00000116924103894208418770000014690015503584902059_);" d="M19.2,13.9c-3.3,0-6,2.7-6,6s2.7,6,6,6
				l0,0l0,0c0.9,0,1.8-0.2,2.6-0.6c-1.3-0.2-2.4-1.3-2.4-2.7c0-1.5,1.2-2.7,2.7-2.7c1.3,0,2.4,0.9,2.6,2.1c0.2-0.7,0.4-1.4,0.4-2.1
				C25.2,16.6,22.5,13.9,19.2,13.9z M16.9,19.6c-0.7,0-1.3-0.6-1.3-1.3c0-0.7,0.6-1.3,1.3-1.3s1.3,0.6,1.3,1.3
				C18.2,19,17.6,19.6,16.9,19.6z"/>
		</g>
	</g>
</g>
</svg>
